<?xml version="1.0" standalone="no"?>
<!DOCTYPE svg PUBLIC "-//W3C//DTD SVG 20010904//EN"
 "http://www.w3.org/TR/2001/REC-SVG-20010904/DTD/svg10.dtd">
<svg version="1.0" xmlns="http://www.w3.org/2000/svg"
 width="664.000000pt" height="664.000000pt" viewBox="0 0 664.000000 664.000000"
 preserveAspectRatio="xMidYMid meet">
<metadata>
Created by potrace 1.14, written by Peter Selinger 2001-2017
</metadata>
<g transform="translate(0.000000,664.000000) scale(0.100000,-0.100000)"
fill="#000000" stroke="none">
<path d="M3703 6622 c-88 -32 -145 -85 -177 -168 -95 -244 -252 -1692 -315
-2913 -6 -103 -14 -178 -21 -185 -17 -17 -309 -20 -620 -6 -151 7 -284 16
-295 20 -16 6 -24 29 -42 116 -12 60 -50 244 -83 409 -288 1417 -554 2359
-720 2549 -18 20 -56 49 -84 64 -43 22 -64 27 -131 27 -94 0 -151 -22 -208
-79 -52 -51 -64 -81 -97 -224 -198 -867 -300 -2468 -260 -4082 19 -741 49
-1328 75 -1455 61 -292 328 -549 690 -662 l90 -28 1460 -3 c1481 -3 1621 -1
1850 34 471 72 862 283 1019 549 53 91 119 252 141 346 50 216 10 424 -108
551 l-42 45 -175 7 c-338 14 -452 24 -514 46 -126 43 -224 132 -282 255 -41
85 -46 124 -64 530 -58 1279 -340 3039 -615 3836 -48 137 -124 295 -164 341
-71 81 -206 116 -308 80z m-422 -4085 c52 -35 79 -82 79 -137 0 -32 -7 -58
-23 -81 -71 -106 -203 -106 -274 0 -66 98 15 241 137 241 32 0 58 -7 81 -23z
m1236 -237 c35 -21 49 -55 39 -93 -3 -14 -47 -58 -103 -104 -268 -219 -487
-486 -599 -730 -79 -172 -76 -168 -110 -171 -37 -4 -64 19 -64 53 0 36 56 189
115 313 97 202 232 389 403 559 188 186 246 218 319 173z m-2402 -95 c347
-118 629 -387 825 -790 110 -225 121 -285 56 -293 -21 -3 -30 3 -44 28 -9 18
-47 78 -84 134 -191 291 -479 515 -891 691 -104 44 -137 78 -137 136 0 47 20
91 52 114 31 23 120 15 223 -20z m3389 -1021 c32 -31 12 -164 -37 -247 -35
-58 -142 -158 -202 -188 -40 -19 -66 -24 -130 -24 -128 0 -175 34 -175 127 0
119 120 225 345 304 130 46 175 53 199 28z"/>
</g>
</svg>
