<?xml version="1.0" encoding="UTF-8"?>
<svg width="46px" height="26px" viewBox="0 0 46 26" version="1.1" xmlns="http://www.w3.org/2000/svg" xmlns:xlink="http://www.w3.org/1999/xlink">
    <title>Shape</title>
    <g id="Page-1" stroke="none" stroke-width="1" fill="none" fill-rule="evenodd">
        <g id="Desktop-HD-Copy-6" transform="translate(-1056.000000, -404.000000)" fill="#FF3E48" fill-rule="nonzero">
            <path d="M1060.28614,404.000487 C1059.55733,404.000487 1059,404.554585 1059,405.279176 C1059,406.003766 1059.55733,406.557864 1060.28614,406.557864 L1060.80021,406.557864 L1060.80021,421.47541 C1060.80021,423.819623 1061.74376,425.908197 1063.28713,427.442623 L1061.87204,427.442623 C1061.14323,427.442623 1060.5859,427.996721 1060.5859,428.721311 C1060.5859,429.445902 1061.14323,430 1061.87204,430 L1100.71386,430 C1101.44267,430 1102,429.445902 1102,428.721311 C1102,428.039344 1101.44267,427.442623 1100.71386,427.442623 L1086.30913,427.442623 C1087.63809,426.078689 1088.53843,424.288914 1088.70992,422.285587 L1094.45466,419.429508 C1096.25526,418.534426 1097.32669,416.744311 1097.32669,414.740984 C1097.32669,411.842623 1094.96912,409.498702 1092.05387,409.498702 L1088.75245,409.498702 L1088.75245,406.557377 L1089.31016,406.557377 C1090.03897,406.557377 1090.59629,406.003279 1090.59629,405.278689 C1090.59629,404.554098 1090.03897,404 1089.31016,404 L1060.28614,404.000487 Z M1064,407 L1082,407 L1082,409 L1064,409 L1064,407 Z M1089,412 L1092.8504,412 C1094.60034,412 1096,413.139148 1096,414.563594 C1096,415.540325 1095.35,416.395663 1094.25006,416.843377 L1089,419 L1089,412 Z M1064,412 L1082,412 L1082,414 L1064,414 L1064,412 Z M1064.00028,418 L1082,418 L1082,421.67737 C1082,424.322937 1080.79967,426.609878 1078.97899,428 L1069.66862,428 C1066.5238,427.910318 1064,425.130177 1064,421.722263 L1064.00028,418 Z M1057,428 C1056.74167,428 1056.48334,428.093126 1056.3,428.278784 C1056.1,428.44756 1056,428.717301 1056,428.987343 C1056,429.257385 1056.1,429.527427 1056.3,429.696203 C1056.46667,429.898734 1056.73333,430 1057,430 C1057.26667,430 1057.53304,429.898734 1057.6997,429.696203 C1057.8997,429.493671 1058,429.257385 1058,428.987343 C1058,428.717301 1057.8997,428.44756 1057.6997,428.278784 C1057.51637,428.093134 1057.25833,428 1057,428 Z" id="Shape"></path>
        </g>
    </g>
</svg>