<?xml version="1.0" encoding="UTF-8"?>
<svg width="43px" height="32px" viewBox="0 0 43 32" version="1.1" xmlns="http://www.w3.org/2000/svg" xmlns:xlink="http://www.w3.org/1999/xlink">
    <title>Combined Shape</title>
    <g id="Page-1" stroke="none" stroke-width="1" fill="none" fill-rule="evenodd">
        <g id="Desktop-HD-Copy-6" transform="translate(-482.000000, -711.000000)" fill="#FFFFFF" fill-rule="nonzero">
            <path d="M489.377657,712.15206 C489.903991,711.335603 490.816453,710.909625 491.763886,711.016119 L491.763886,711.016119 L522.854639,714.885459 C523.767101,715.027452 524.539076,715.63088 524.8549,716.518374 C525.170725,717.405869 524.960175,718.399777 524.328527,719.074242 L524.328527,719.074242 L503.028128,742.219041 C502.536926,742.716015 501.905237,743 501.238497,743 C500.992856,743 500.712123,742.964502 500.466482,742.893506 C499.5541,742.574063 498.88736,741.793022 498.782085,740.834612 L498.782085,740.834612 L497.869703,733.557449 C497.308238,728.907394 499.940068,724.541161 504.291425,722.943703 L504.291425,722.943703 L520.784075,716.767024 L491.517282,713.110754 C491.306733,713.110754 491.201458,713.217248 491.166366,713.288245 C491.131275,713.359241 491.061092,713.501234 491.166366,713.678724 L491.166366,713.678724 L494.219295,718.435478 C494.53512,718.896994 494.394753,719.571459 493.903471,719.890943 C493.44724,720.210426 492.7805,720.068433 492.464675,719.571459 L492.464675,719.571459 L489.412749,714.814381 C488.886375,713.997964 488.851324,712.968518 489.377657,712.15206 Z M493.628162,729.067915 C494.142742,728.863361 494.725849,729.1361 494.931666,729.681579 C495.137482,730.193005 494.86306,730.772537 494.314216,730.977092 L494.314216,730.977092 L483.371838,734.931815 C483.26893,734.965908 483.131719,735 483.028811,735 C482.617178,735 482.205545,734.72726 482.068334,734.318151 C481.862518,733.806726 482.13694,733.227193 482.685784,733.022638 L482.685784,733.022638 Z M492.548581,725.062257 C493.093012,724.874745 493.709946,725.124761 493.927702,725.624792 C494.145457,726.093606 493.855116,726.624853 493.274434,726.812365 L493.274434,726.812365 L486.451419,728.937496 C486.342541,728.968748 486.19737,729 486.088492,729 C485.616688,729 485.217469,728.781236 485.072298,728.374961 C484.854543,727.906147 485.144884,727.3749 485.725566,727.187388 L485.725566,727.187388 Z" id="Combined-Shape"></path>
        </g>
    </g>
</svg>