<?xml version="1.0" encoding="UTF-8"?>
<svg width="40px" height="41px" viewBox="0 0 40 41" version="1.1" xmlns="http://www.w3.org/2000/svg" xmlns:xlink="http://www.w3.org/1999/xlink">
    <title>Combined Shape</title>
    <g id="Page-1" stroke="none" stroke-width="1" fill="none" fill-rule="evenodd">
        <g id="Desktop-HD-Copy-6" transform="translate(-918.000000, -707.000000)" fill="#FFFFFF" fill-rule="nonzero">
            <path d="M953.797091,707 C956.124856,707 958,708.885796 958,711.226785 L958,711.226785 L958,743.773215 C958,746.114204 956.124856,748 953.797091,748 L953.797091,748 L924.700031,748 C924.15042,748 923.730129,747.577322 923.730129,747.024588 L923.730129,747.024588 L923.730129,743.448078 L921.628638,743.448078 C920.658736,743.448078 919.656504,743.057913 918.977573,742.342611 C918.137028,741.432226 917.813727,740.196779 918.104698,738.993734 L918.104698,738.993734 L918.298678,738.180853 C919.753568,732.295682 920.497123,726.248128 920.497123,720.200575 L920.497123,720.200575 L920.497123,711.226785 C920.497123,708.885796 922.372267,707 924.700031,707 L924.700031,707 Z M950.563937,708.950675 L924.699884,708.950675 C923.438974,708.950675 922.436779,709.958638 922.436779,711.226636 L922.436779,711.226636 L922.436779,720.233125 C922.436779,726.443062 921.660857,732.653148 920.173674,738.668225 L920.173674,738.668225 L919.979694,739.416004 C919.882704,739.806168 919.915034,740.261398 920.109014,740.619049 C920.400022,741.139268 920.949596,741.464406 921.531537,741.464406 L921.531537,741.464406 L946.264223,741.464406 C947.589719,741.464406 948.753601,740.554021 949.076902,739.253472 L949.076902,739.253472 L949.335542,738.180482 C950.790432,732.295311 951.533987,726.280456 951.533987,720.232903 L951.533987,720.232903 L951.533987,709.926087 C951.533987,709.373354 951.113548,708.950675 950.563937,708.950675 L950.563937,708.950675 Z M931.395175,725.021515 C932.787088,724.816536 933.76779,726.114738 934.621882,727.276287 C935.191301,728.06208 935.887258,729.01865 936.393408,728.950324 C936.74135,728.916122 937.184232,728.437876 937.627113,727.993754 C938.323142,727.276287 939.208905,726.353919 940.44261,726.490572 C940.790625,726.524736 941.138603,726.661388 941.486581,726.832205 C941.961133,727.071191 942.15094,727.686168 941.86623,728.198616 C941.644826,728.711064 941.07537,728.916044 940.600855,728.676901 C940.474317,728.608575 940.316145,728.540248 940.221242,728.540248 C939.873227,728.506046 939.398712,728.98437 938.924196,729.496818 C938.291508,730.145881 937.563881,730.89751 936.583251,731 L936.583251,731 L936.330176,731 C934.938263,731 933.989159,729.701876 933.135066,728.574451 C932.692112,727.993637 932.091095,727.173759 931.711482,727.071269 C931.570543,727.223426 931.327147,727.5693 931.070942,727.941587 L930.850292,728.263257 C930.77709,728.370035 930.704934,728.475067 930.635913,728.574451 C930.351204,728.984409 930.03486,729.462694 929.686881,729.940979 C929.370538,730.385101 928.769484,730.453428 928.358237,730.111795 C927.94699,729.770163 927.883721,729.121062 928.200065,728.67694 C928.516445,728.198733 928.832789,727.754572 929.117499,727.344614 C930.098128,725.909759 930.604279,725.124005 931.395175,725.021515 Z M945,729 C945.552381,729 946,729.447619 946,730 C946,730.552381 945.552381,731 945,731 C944.447619,731 944,730.552381 944,730 C944,729.447619 944.447619,729 945,729 Z" id="Combined-Shape"></path>
        </g>
    </g>
</svg>