<?xml version="1.0" encoding="UTF-8"?>
<svg width="40px" height="32px" viewBox="0 0 40 32" version="1.1" xmlns="http://www.w3.org/2000/svg" xmlns:xlink="http://www.w3.org/1999/xlink">
    <title>Combined Shape</title>
    <g id="Page-1" stroke="none" stroke-width="1" fill="none" fill-rule="evenodd">
        <g id="Desktop-HD-Copy-6" transform="translate(-549.000000, -352.000000)" fill="#FF3E48" fill-rule="nonzero">
            <path d="M578.610329,367.092796 L572.169251,367.092796 C571.383722,367.092796 570.723944,366.304257 570.881007,365.484286 L573.268905,353.593477 C573.520263,352.205712 571.792215,351.417172 570.943846,352.521113 L558.250281,369.647222 C557.621887,370.561922 558.250281,371.791951 559.318552,371.791951 L565.602495,371.791951 C566.450791,371.791951 567.079185,372.58049 566.890739,373.432038 L564.722743,382.389434 C564.408546,383.714119 566.10521,384.565739 567.016418,383.556455 L579.678383,369.268596 C580.432457,368.417049 579.772643,367.029283 578.610113,367.092292 L578.610329,367.092796 Z M555,370 C555,369.433333 554.61,369 554.1,369 L549.9,369 C549.39,369 549,369.433333 549,370 C549,370.566667 549.39,371 549.9,371 L554.1,371 C554.61,371 555,370.533333 555,370 Z M555.593422,377.100565 L552.444025,378.630178 C552.015947,378.852218 551.863062,379.296271 552.138255,379.641724 C552.413448,379.987177 552.963799,380.110476 553.391947,379.888436 L556.541345,378.358823 C556.816538,378.210796 557,377.964084 557,377.717372 C557,377.594016 556.969423,377.445989 556.877692,377.347305 C556.602499,377.001908 556.021536,376.903223 555.593457,377.100593 L555.593422,377.100565 Z M556.566235,362.635183 L553.399576,361.111145 C552.969152,360.889913 552.384969,361.01282 552.139012,361.356957 C551.862311,361.701095 552.016034,362.168167 552.446459,362.364817 L555.613117,363.888855 C556.043542,364.110087 556.627724,363.98718 556.873681,363.643043 C556.965915,363.520136 556.99666,363.39723 556.99666,363.274324 C557.027404,363.028511 556.842937,362.782699 556.566235,362.635211 L556.566235,362.635183 Z M588.1,369 L583.9,369 C583.39,369 583,369.433333 583,370 C583,370.566667 583.39,371 583.9,371 L588.1,371 C588.61,371 589,370.566667 589,370 C589,369.433333 588.61,369 588.1,369 Z M585.557384,378.635198 L582.385726,377.111146 C581.954622,376.889912 581.369518,377.01282 581.123173,377.356961 C581.030793,377.479868 581,377.602776 581,377.725683 C581,377.971498 581.153966,378.217313 581.461897,378.364802 L584.633555,379.888854 C585.064659,380.110088 585.649764,379.98718 585.896109,379.643039 C586.111661,379.298898 585.988488,378.831822 585.557384,378.63517 L585.557384,378.635198 Z M584.630253,361.095254 L581.461477,362.62769 C581.184591,362.77599 581,363.023158 581,363.270325 C581,363.393908 581.030765,363.542209 581.123061,363.641076 C581.399947,363.98711 581.953685,364.110693 582.384467,363.888243 L585.553243,362.355806 C585.983955,362.133356 586.137781,361.688483 585.860895,361.342392 C585.614773,361.021075 585.061001,360.897492 584.630288,361.095225 L584.630253,361.095254 Z" id="Combined-Shape"></path>
        </g>
    </g>
</svg>