<?xml version="1.0" encoding="UTF-8"?>
<svg width="35px" height="34px" viewBox="0 0 35 34" version="1.1" xmlns="http://www.w3.org/2000/svg" xmlns:xlink="http://www.w3.org/1999/xlink">
    <title>Combined Shape</title>
    <g id="Page-1" stroke="none" stroke-width="1" fill="none" fill-rule="evenodd">
        <g id="Desktop-HD-Copy-6" transform="translate(-311.000000, -350.000000)" fill="#FF3E48" fill-rule="nonzero">
            <path d="M343.58629,350 C344.860729,350 345.91272,351.007177 345.99484,352.269506 L346,352.428571 L346,375.5 C346,376.782286 344.998986,377.840754 343.744382,377.92338 L343.58629,377.928571 L334.62522,377.928571 L335.107962,381.176751 C335.156236,381.443922 335.165891,381.71107 335.121479,381.978214 L335.07779,382.178571 L338.788835,382.178571 C339.301748,382.178571 339.693976,382.573214 339.693976,383.089286 C339.693976,383.568495 339.35578,383.943003 338.896799,383.994059 L338.788835,384 L318.211613,384 C317.6987,384 317.306472,383.605357 317.306472,383.089286 C317.306472,382.610077 317.644669,382.235569 318.10365,382.184512 L318.211613,382.178571 L332.784214,382.178571 C333.025585,382.178571 333.176442,382.026786 333.236785,381.966071 C333.288507,381.914031 333.362396,381.772777 333.363452,381.580545 L333.35747,381.480357 L332.723872,377.4125 C332.678615,377.321429 332.650329,377.230357 332.639015,377.126479 L332.633357,377.017857 L332.633357,376.926786 L330.762732,365.026786 C330.672253,364.541071 331.034309,364.085714 331.517051,363.994643 C331.931939,363.911161 332.321446,364.159288 332.476441,364.528581 L332.512741,364.632143 L332.814455,365.330322 C334.733129,369.903896 339.01926,373.024656 343.865352,373.4708 L344.189235,373.496567 L344.189235,352.429057 C344.189235,352.128521 343.969286,351.877164 343.683351,351.829898 L343.585807,351.821914 L313.414434,351.821914 C313.115737,351.821914 312.865918,352.043218 312.818942,352.330913 L312.811007,352.429057 L312.811007,373.071914 L323.853384,373.071914 C323.943898,373.071914 324.034413,373.041557 324.124927,373.071914 C324.601235,373.156448 324.921424,373.581291 324.892264,374.030442 L324.879246,374.13438 L323.883556,380.205808 C323.800553,380.623251 323.464085,380.913122 323.083228,380.958535 L322.978415,380.964771 L322.827558,380.964771 C322.351249,380.880237 322.031061,380.455395 322.06022,380.006244 L322.073239,379.902306 L322.405124,377.929057 L313.41371,377.929057 C312.139271,377.929057 311.08728,376.92188 311.00516,375.659551 L311,375.500486 L311.001207,352.428571 C311.001207,351.146286 312.002221,350.087817 313.256825,350.005191 L313.414917,350 L343.58629,350 Z M343,382 C343.552381,382 344,382.447619 344,383 C344,383.552381 343.552381,384 343,384 C342.447619,384 342,383.552381 342,383 C342,382.447619 342.447619,382 343,382 Z M328,373 C329.104588,373 330,373.895412 330,375 C330,376.104588 329.104588,377 328,377 C326.895412,377 326,376.104588 326,375 C326,373.895412 326.895412,373 328,373 Z M328.640625,356 C329.203125,356 329.71875,356.371429 330,356.914286 C329.742188,357.171396 329.578125,357.542857 329.578125,358 C329.578125,358.457143 329.742188,358.828571 330,359.085714 C329.71875,359.628571 329.203125,360 328.640625,360 C327.726536,360 327,359.114318 327,358 C327,356.885682 327.726589,356 328.640625,356 Z" id="Combined-Shape"></path>
        </g>
    </g>
</svg>