<?xml version="1.0" encoding="UTF-8"?>
<svg width="67px" height="83px" viewBox="0 0 67 83" version="1.1" xmlns="http://www.w3.org/2000/svg" xmlns:xlink="http://www.w3.org/1999/xlink">
    <title>Fill 1</title>
    <g id="Page-1" stroke="none" stroke-width="1" fill="none" fill-rule="evenodd">
        <g id="Desktop-HD-Copy-6" transform="translate(-687.000000, -95.000000)" fill="#FE5351">
            <path d="M747.697378,165.458387 C747.507685,166.065529 747.224256,166.473995 746.939346,166.826491 C745.352887,168.788042 743.477998,169.456712 741.711849,168.690192 C741.427309,168.566739 741.09868,168.309314 741.017541,167.662675 C740.910654,166.809422 741.313011,166.109591 741.661647,165.745782 C743.053966,164.293325 744.443878,163.81301 745.939565,163.382711 C746.500309,163.221349 748.819607,161.868528 747.697378,165.458387 M735.59551,150.903864 C731.571371,154.060689 728.18249,157.708853 726.41335,162.516004 C726.105137,163.353425 724.781683,163.023073 725.031099,162.143976 C726.503324,156.955807 729.650322,152.627737 733.92597,149.273763 C735.100235,148.352784 736.780028,149.974713 735.59551,150.903864 M719,150 C717.895421,150 717,149.104626 717,148.000106 C717,146.895586 717.895421,146 719,146 C720.104579,146 721,146.895586 721,148.000106 C721,149.104626 720.104579,150 719,150 M715.956557,163.718597 C713.154056,158.275393 708.283653,155.061968 702.999866,152.982334 C701.26985,152.3013 701.955228,149.688452 703.755645,150.030764 C710.129566,151.242688 714.855441,156.954293 716.967662,163.259506 C717.184159,163.906119 716.253653,164.295945 715.956557,163.718597 M751.789619,158.901171 L744.860236,158.560249 C741.696835,158.404387 739.189936,155.833876 739.10483,152.665088 C738.535647,131.462245 733.450827,103.089155 729.608793,96.7799737 C727.909493,93.9897655 723.698466,94.6017346 722.878593,97.764682 C720.677914,106.25472 718.887875,135.263541 719.025695,135.878531 C719.211197,136.708183 707.23502,135.878531 707.23502,135.878531 C705.765083,128.522015 700.963949,103.769389 697.283676,97.9316192 C695.53267,95.1542989 691.305547,95.8647387 690.561726,99.063329 C685.159218,122.30184 687.372572,163.613071 687.872342,168.445794 C687.937329,169.074879 688.068508,169.695709 688.288818,170.288346 C690.189715,175.403392 694.973949,177.184929 697.178853,177.747964 C697.803365,177.907249 698.445984,177.983167 699.090615,177.983167 L732.309846,177.983167 C747.644986,178.397993 751.789619,171.00825 751.789619,171.00825 C756.762977,162.373829 751.789619,158.901171 751.789619,158.901171" id="Fill-1"></path>
        </g>
    </g>
</svg>